# xmcd
#
# Track frame offsets:
#	150
#	13877
#	27587
#	43640
#	65057
#	90195
#	106040
#	121752
#	142412
#	157070
#	175415
#	188215
#
# Disc length: 2686 seconds
#
# Revision: 1
# Processed by: cddbd v1.5.1PL0 Copyright (c) Steve Scherf et al.
# Submitted via: audiograbber 1.83.01
#
DISCID=a60a7c0c
DTITLE=Blues Rats - Blus Rats
DYEAR=2004
DGENRE=Blues
TTITLE0=Heaven
TTITLE1=Dope,chicks and booze
TTITLE2=Don´t care no more
TTITLE3=the Devil got my women
TTITLE4=so long
TTITLE5=Crossroads
TTITLE6=Alcohol and women
TTITLE7=Twelve bar blues
TTITLE8=Waterbed
TTITLE9=Payday
TTITLE10=I´m a bluesman
TTITLE11=can´t be satisfied
EXTD=
EXTT0=
EXTT1=
EXTT2=
EXTT3=
EXTT4=
EXTT5=
EXTT6=
EXTT7=
EXTT8=
EXTT9=
EXTT10=
EXTT11=
PLAYORDER=
